<svg xmlns="http://www.w3.org/2000/svg" viewBox="0 0 270.06 243.79"><defs><style>.cls-1{fill:#888;}.cls-2{fill:#b1bbdf;}.cls-3{fill:#4c4c71;}.cls-4{fill:#f3aacb;}.cls-5{fill:#ed4597;}</style></defs><title>Data Mining</title><g id="Layer_2" data-name="Layer 2"><g id="Layer_1-2" data-name="Layer 1"><path class="cls-1" d="M261.41,243.12H181V217h80.4Zm-77.4-3h74.4V220H184Z"/><rect class="cls-2" x="221.25" y="223.23" width="33.97" height="13.71"/><path class="cls-1" d="M261.41,220H181V194h80.4ZM184,217h74.4V197H184Z"/><rect class="cls-2" x="221.25" y="200.14" width="33.97" height="13.71"/><path class="cls-1" d="M80.4,101.69H0V.08H80.4ZM3,98.69H77.4V3.08H3Z"/><path class="cls-3" d="M63.73,41.52a22.71,22.71,0,0,0,.89-6.32,23,23,0,0,0-46-.05l23,.05Z"/><path class="cls-4" d="M41.61,58.22a23,23,0,0,1-20-11.65c6.87-3.78,19.46-11,20-11.36h0l13,19A22.85,22.85,0,0,1,41.61,58.22Z"/><path class="cls-2" d="M12.7,39.8v0a18.7,18.7,0,0,0,1.39,5.37l17.37-7.38Z"/><path class="cls-5" d="M54.6,54.19a23,23,0,0,0,9.13-12.67L41.61,35.2Z"/><path class="cls-1" d="M41.61,59.72a24.6,24.6,0,0,1-21.32-12.4l2.61-1.49A21.51,21.51,0,1,0,20.09,35.2h-3A24.52,24.52,0,1,1,41.61,59.72Z"/><path class="cls-1" d="M270.06,65.09H172.37V0h97.69Zm-94.69-3h91.69V3H175.37Z"/><path class="cls-1" d="M262.55,57.59H179.87V7.5h82.68Zm-79.68-3h76.68V10.5H182.87Z"/><path class="cls-1" d="M253.51,87.57H190.12v-9.5h14.41l4.19-16h26.19l4.19,16h14.41Zm-60.39-3h57.39v-3.5H236.78l-4.19-16H211l-4.19,16H193.12Z"/><polygon class="cls-2" points="232 75.41 230.13 68.28 213.49 68.28 211.62 75.41 232 75.41"/><rect class="cls-1" x="17.27" y="69.79" width="48.74" height="3"/><rect class="cls-1" x="17.27" y="77.43" width="48.74" height="3"/><rect class="cls-1" x="17.27" y="85.08" width="37.85" height="3"/><rect class="cls-3" x="191.62" y="16.35" width="23.37" height="32.79"/><polygon class="cls-1" points="212.78 48.11 210.72 45.93 228.17 29.43 236.22 34.92 250.08 21.51 252.16 23.66 236.54 38.78 228.47 33.27 212.78 48.11"/><polygon class="cls-1" points="252.62 30.77 249.62 30.77 249.62 24.09 243.17 24.09 243.17 21.09 252.62 21.09 252.62 30.77"/><polygon class="cls-5" points="223.18 49.15 223.18 42.77 228.26 37.91 228.26 49.15 223.18 49.15"/><polygon class="cls-4" points="232.84 49.15 232.84 39.93 236.38 42.44 237.92 40.97 237.92 49.15 232.84 49.15"/><polygon class="cls-2" points="242.7 49.15 242.7 38.86 247.78 34.1 247.78 49.15 242.7 49.15"/><path class="cls-1" d="M141.84,54.21V41.09H91l.12-23.54h50.7V5.72l27.29,24.39ZM94,38.09h50.8v9.47L164.62,30.1,144.84,12.43v8.12H94.13Z"/><polygon class="cls-5" points="148.03 34.9 97.24 34.9 97.3 23.73 148.03 23.73 148.03 19.55 159.81 30.08 148.03 40.49 148.03 34.9"/><path class="cls-1" d="M221.68,178l-24.1-27.29h13.13V99.87l23.54.12v50.7h11.82Zm-17.45-24.29,17.46,19.77,17.68-19.77h-8.12V103l-17.54-.09v50.81Z"/><polygon class="cls-5" points="216.9 156.88 216.9 106.09 228.06 106.15 228.06 156.88 232.24 156.88 221.71 168.66 211.3 156.88 216.9 156.88"/><path class="cls-3" d="M39.11,240l82.45-81.75-11.27-11.41L27.84,228.57a8,8,0,0,0-.07,11.34h0A8,8,0,0,0,39.11,240Z"/><polygon class="cls-3" points="153.47 126.69 142.19 115.28 132.93 124.44 145.84 134.23 153.47 126.69"/><path class="cls-1" d="M146.82,180.63l-42-42.51a76.6,76.6,0,0,0-22.9-9.82,56.65,56.65,0,0,0-13.08-1.62H67.29L66.2,114.58l1.36-.24c4-.71,8-1.23,12-1.55a93.5,93.5,0,0,1,28.9,1.85A59.7,59.7,0,0,1,124.65,121l.4.25,46.3,35.15ZM70,123.7a60.11,60.11,0,0,1,12.56,1.68,78.26,78.26,0,0,1,24,10.34l.22.18,40,40.49,19.94-19.71-43.47-33-.17-.09a56.41,56.41,0,0,0-15.41-6,90.24,90.24,0,0,0-28-1.78c-3.39.28-6.86.71-10.33,1.28Z"/><path class="cls-2" d="M161.87,157l-15,14.83-38.06-38.51-.33-.23c-.77-.53-16.41-11.16-35.72-12.49l-.07-.79c2.28-.33,4.75-.62,7.34-.82,11.59-.93,28.17-.4,41.49,7.37Z"/><path class="cls-1" d="M158.59,211.28l-2.35-1.86.9-1.16,2.39,1.81C159.22,210.48,158.91,210.88,158.59,211.28Z"/><path class="cls-1" d="M150.41,220.27l-2.07-2.17c.71-.68,1.4-1.37,2.09-2.07l2.14,2.1C151.86,218.86,151.14,219.57,150.41,220.27Zm4.25-4.35-2.22-2c.66-.72,1.31-1.46,1.94-2.21l2.29,1.94C156,214.41,155.34,215.17,154.66,215.92Z"/><path class="cls-1" d="M91.62,243.79c-.67,0-1.34,0-2,0l.07-3c1,0,2,0,2.93,0l0,3Zm4.08-.09-.15-3c1,0,2-.11,2.93-.19l.25,3C97.72,243.59,96.71,243.65,95.7,243.7Zm-9.12,0c-1-.06-2-.14-3-.23l.28-3c1,.09,1.94.17,2.92.22Zm15.17-.45-.35-3c1-.12,1.94-.25,2.9-.4l.46,3C103.76,242.94,102.76,243.08,101.75,243.2Zm-21.22-.12c-1-.13-2-.28-3-.45l.49-2.95c1,.16,1.93.3,2.9.43Zm27.22-.81-.56-3c1-.18,1.92-.38,2.87-.6l.67,2.92C109.74,241.87,108.75,242.08,107.75,242.27Zm-33.22-.19q-1.5-.3-3-.66l.7-2.91c.95.22,1.9.44,2.87.63Zm39.15-1.17-.78-2.9q1.42-.37,2.82-.81l.88,2.87C115.63,240.37,114.66,240.65,113.68,240.91Zm-45.06-.25c-1-.28-2-.57-2.92-.88l.91-2.85c.93.29,1.87.57,2.81.84Zm50.87-1.53-1-2.83c.93-.32,1.84-.66,2.75-1l1.09,2.79C121.4,238.45,120.45,238.8,119.49,239.13Zm-56.68-.32c-1-.35-1.91-.71-2.85-1.09l1.12-2.78c.91.36,1.82.71,2.75,1Zm62.35-1.87L124,234.18c.9-.39,1.79-.79,2.68-1.2l1.28,2.71C127,236.12,126.1,236.54,125.16,236.94Zm-68-.4c-.93-.41-1.85-.84-2.76-1.28l1.31-2.7c.88.43,1.77.84,2.67,1.24Zm73.51-2.2-1.37-2.66c.87-.45,1.73-.92,2.58-1.39l1.47,2.61C132.46,233.4,131.56,233.88,130.66,234.34Zm-79-.46c-.9-.48-1.78-1-2.66-1.48l1.5-2.6c.85.49,1.7,1,2.57,1.43ZM136,231.36l-1.56-2.56c.83-.51,1.66-1,2.48-1.57l1.65,2.5C137.68,230.29,136.83,230.83,136,231.36Zm-89.56-.53c-.86-.54-1.71-1.1-2.55-1.67l1.68-2.48c.81.55,1.63,1.08,2.46,1.6ZM141,228l-1.75-2.44c.8-.57,1.59-1.15,2.36-1.75l1.83,2.38C142.68,226.82,141.86,227.42,141,228Zm-99.68-.6c-.82-.6-1.63-1.21-2.42-1.84l1.85-2.36c.77.61,1.55,1.2,2.34,1.78Zm104.5-3.1L144,222c.75-.62,1.5-1.26,2.23-1.9l2,2.24Q147,223.33,145.86,224.31Zm-109.28-.66c-.77-.66-1.54-1.33-2.29-2l2-2.22c.73.66,1.46,1.31,2.21,1.94Zm-4.5-4.09c-.72-.71-1.44-1.43-2.14-2.16l2.17-2.08c.68.71,1.37,1.41,2.07,2.09Zm-4.2-4.4c-.67-.76-1.33-1.53-2-2.31l2.31-1.91c.62.75,1.26,1.5,1.91,2.23ZM24,210.48c-.62-.81-1.22-1.62-1.81-2.44l2.44-1.75c.57.8,1.15,1.58,1.75,2.36Zm-3.53-4.95c-.56-.84-1.1-1.69-1.63-2.56l2.56-1.56c.51.83,1,1.65,1.57,2.47Zm-3.17-5.18q-.73-1.32-1.44-2.67l2.67-1.38c.44.87.91,1.73,1.39,2.58ZM14.52,195c-.43-.91-.84-1.83-1.24-2.76L16,191c.39.9.79,1.79,1.21,2.67Zm-2.39-5.57q-.56-1.41-1.05-2.85l2.83-1c.33.93.66,1.85,1,2.76Zm-2-5.74c-.29-1-.57-1.94-.84-2.92l2.9-.78q.38,1.41.81,2.82Zm-1.57-5.88q-.35-1.47-.63-3l2.94-.57c.19,1,.39,1.92.61,2.87Zm-1.15-6c-.16-1-.3-2-.42-3l3-.36c.12,1,.25,1.95.4,2.91Zm-.73-6c-.08-1-.15-2-.2-3l3-.14c0,1,.11,1.95.19,2.93Zm-.29-6.08c0-.37,0-.75,0-1.13,0-.64,0-1.27,0-1.91l3,.07c0,.61,0,1.23,0,1.84,0,.37,0,.73,0,1.09Zm3.13-5.91-3-.17c.06-1,.14-2,.23-3l3,.28C9.65,151.83,9.58,152.8,9.52,153.78Zm.54-5.84-3-.39c.13-1,.28-2,.44-3l3,.49C10.33,146,10.19,147,10.06,147.94Zm1-5.79-2.94-.6q.3-1.5.66-3l2.92.7C11.43,140.23,11.22,141.19,11,142.15Zm1.37-5.71-2.89-.81c.28-1,.57-1.95.87-2.91l2.86.91C12.94,134.56,12.66,135.5,12.39,136.44Zm1.78-5.59-2.82-1c.34-1,.7-1.91,1.07-2.85l2.79,1.11C14.85,129,14.5,129.93,14.17,130.85Zm2.17-5.45-2.74-1.21c.41-.93.84-1.85,1.28-2.76l2.7,1.3C17.15,123.61,16.74,124.5,16.34,125.4Z"/><path class="cls-1" d="M18.94,120.05l-2.65-1.41L17,117.3l2.62,1.46C19.4,119.19,19.17,119.62,18.94,120.05Z"/><rect class="cls-1" x="156.63" y="104.07" width="16.91" height="3" transform="translate(-26.3 147.66) rotate(-45)"/><rect class="cls-1" x="167.5" y="134.3" width="16.86" height="3"/><rect class="cls-1" x="130.49" y="85.11" width="3" height="16.19"/><path class="cls-1" d="M194.71,211.88A4.89,4.89,0,1,1,199.6,207,4.89,4.89,0,0,1,194.71,211.88Zm0-6.77A1.89,1.89,0,1,0,196.6,207,1.88,1.88,0,0,0,194.71,205.11Z"/><path class="cls-1" d="M194.71,235a4.89,4.89,0,1,1,4.89-4.89A4.9,4.9,0,0,1,194.71,235Zm0-6.78a1.89,1.89,0,1,0,1.89,1.89A1.89,1.89,0,0,0,194.71,228.19Z"/><path class="cls-1" d="M246.77,211.88a4.89,4.89,0,1,1,4.88-4.89A4.89,4.89,0,0,1,246.77,211.88Zm0-6.77a1.89,1.89,0,1,0,1.88,1.88A1.89,1.89,0,0,0,246.77,205.11Z"/><path class="cls-1" d="M246.77,235a4.89,4.89,0,1,1,4.88-4.89A4.9,4.9,0,0,1,246.77,235Zm0-6.78a1.89,1.89,0,1,0,1.88,1.89A1.89,1.89,0,0,0,246.77,228.19Z"/></g></g></svg>