<svg width="13" height="12" viewBox="0 0 13 12" xmlns="http://www.w3.org/2000/svg">
                    <path d="M6.1956 11.7007C6.5826 12.0947 7.2158 12.1004 7.6098 11.7134L12.7007 6.7134C12.8922 6.5254 13 6.2683 13 6C13 5.7317 12.8922 5.4746 12.7007 5.2866L7.6098 0.286553C7.2158 -0.100437 6.5826 -0.0947366 6.1956 0.299293C5.8087 0.693323 5.8144 1.32646 6.2084 1.71345L9.5547 5H1C0.44772 5 0 5.4477 0 6C0 6.5523 0.44772 7 1 7H9.5547L6.2084 10.2866C5.8144 10.6735 5.8087 11.3067 6.1956 11.7007Z" fill='#4b4b71'></path>
                  </svg>