<svg width="13" height="12" viewBox="0 0 13 12" xmlns="http://www.w3.org/2000/svg">
                    <path d="M6.8044 0.299265C6.4174 -0.0947348 5.7842 -0.100434 5.3902 0.286566L0.299299 5.28657C0.107799 5.47457 2.34555e-08 5.73166 0 5.99996C-2.34555e-08 6.26826 0.107799 6.52537 0.299299 6.71337L5.3902 11.7134C5.7842 12.1004 6.4174 12.0947 6.8044 11.7007C7.1913 11.3066 7.1856 10.6735 6.7916 10.2865L3.4453 6.99997L12 6.99997C12.5523 6.99997 13 6.55227 13 5.99997C13 5.44767 12.5523 4.99997 12 4.99997L3.4453 4.99997L6.7916 1.71337C7.1856 1.32647 7.1913 0.693265 6.8044 0.299265Z" fill='#2f4d2a'></path>
                  </svg>